<svg xmlns="http://www.w3.org/2000/svg" width="46.378" height="54.467" viewBox="0 0 46.378 54.467">
  <g id="icono" transform="translate(-937.4 -1245.5)">
    <g id="Grupo_7" data-name="Grupo 7" transform="translate(698 1219)">
      <g id="Trazado_3" data-name="Trazado 3" transform="translate(243.719 26.5)" fill="#50ff50">
        <path d="M 19.08690452575684 49.04129791259766 C 9.113754272460938 49.04129791259766 1.000004529953003 38.26567840576172 1.000004529953003 25.02064895629883 C 1.000004529953003 21.79190826416016 1.533114552497864 18.6259593963623 2.584524631500244 15.61073875427246 C 3.575424432754517 12.76906871795654 4.976614475250244 10.19110870361328 6.749194622039795 7.948469161987305 C 10.23946475982666 3.532618999481201 14.73638439178467 0.999998927116394 19.08690452575684 0.999998927116394 C 23.43742370605469 0.999998927116394 27.93434524536133 3.532618999481201 31.42462539672852 7.948469161987305 C 33.19719314575195 10.19110870361328 34.59839630126953 12.76906871795654 35.58929443359375 15.61073875427246 C 36.64070510864258 18.6259593963623 37.17381286621094 21.79190826416016 37.17381286621094 25.02064895629883 C 37.17381286621094 38.26567840576172 29.0600643157959 49.04129791259766 19.08690452575684 49.04129791259766 Z" stroke="none"/>
        <path d="M 19.08690452575684 2 C 17.09089469909668 2 15.06437492370605 2.574230194091797 13.06364440917969 3.706748962402344 C 11.06623458862305 4.837387084960938 9.154024124145508 6.518569946289062 7.533714294433594 8.568557739257812 C 5.830364227294922 10.72361755371094 4.482906341552734 13.20372772216797 3.528755187988281 15.93999862670898 C 2.51434326171875 18.8491096496582 1.999996185302734 21.9042797088623 1.999996185302734 25.02064895629883 C 1.999996185302734 28.18961906433105 2.472133636474609 31.25971984863281 3.403312683105469 34.14567947387695 C 4.294795989990234 36.90859985351562 5.565643310546875 39.38291931152344 7.180564880371094 41.4998893737793 C 10.39847373962402 45.71817779541016 14.62689399719238 48.04129791259766 19.08690452575684 48.04129791259766 C 23.54691314697266 48.04129791259766 27.77533340454102 45.71817779541016 30.99324417114258 41.4998893737793 C 32.6081657409668 39.38291931152344 33.87901306152344 36.90859985351562 34.77048492431641 34.14567947387695 C 35.70166397094727 31.25971984863281 36.17380523681641 28.18961906433105 36.17380523681641 25.02064895629883 C 36.17380523681641 21.9042797088623 35.65945434570312 18.8491096496582 34.64504623413086 15.93999862670898 C 33.69090270996094 13.20372772216797 32.34343338012695 10.72361755371094 30.64008522033691 8.568557739257812 C 29.01978492736816 6.518569946289062 27.10756492614746 4.837387084960938 25.11016464233398 3.706748962402344 C 23.10943412780762 2.574230194091797 21.08291435241699 2 19.08690452575684 2 M 19.08690452575684 0 C 28.63035583496094 0 38.17380523681641 11.20212936401367 38.17380523681641 25.02064895629883 C 38.17380523681641 38.83916854858398 29.62831497192383 50.04129791259766 19.08690452575684 50.04129791259766 C 8.545494079589844 50.04129791259766 -3.814697265625e-06 38.83916854858398 -3.814697265625e-06 25.02064895629883 C -3.814697265625e-06 11.20212936401367 9.543455123901367 0 19.08690452575684 0 Z" stroke="none" fill="#2d912d"/>
      </g>
      <line id="Línea_1" data-name="Línea 1" y1="1.776" x2="0.888" transform="translate(270.796 33.602)" fill="none" stroke="#707070" stroke-width="1"/>
      <line id="Línea_2" data-name="Línea 2" y1="1.776" x2="4.439" transform="translate(275.235 39.816)" fill="none" stroke="#707070" stroke-width="1"/>
      <line id="Línea_3" data-name="Línea 3" x2="3.551" transform="translate(279.674 48.694)" fill="none" stroke="#707070" stroke-width="1"/>
      <line id="Línea_4" data-name="Línea 4" x2="1.776" y2="0.888" transform="translate(279.674 62.011)" fill="none" stroke="#707070" stroke-width="1"/>
      <line id="Línea_5" data-name="Línea 5" x2="1.776" y2="3.551" transform="translate(273.459 64.674)" fill="none" stroke="#707070" stroke-width="1"/>
      <line id="Línea_6" data-name="Línea 6" x1="1.776" y2="5.327" transform="translate(260.143 68.225)" fill="none" stroke="#707070" stroke-width="1"/>
      <line id="Línea_7" data-name="Línea 7" x1="4.439" y2="1.776" transform="translate(250.378 66.449)" fill="none" stroke="#707070" stroke-width="1"/>
      <line id="Línea_8" data-name="Línea 8" x1="5.327" y1="4.439" transform="translate(245.051 57.572)" fill="none" stroke="#707070" stroke-width="1"/>
      <line id="Línea_9" data-name="Línea 9" x1="1.776" transform="translate(243.276 48.694)" fill="none" stroke="#707070" stroke-width="1"/>
      <line id="Línea_10" data-name="Línea 10" x1="2.663" y1="0.888" transform="translate(254.816 40.704)" fill="none" stroke="#707070" stroke-width="1"/>
      <line id="Línea_11" data-name="Línea 11" y1="0.888" x2="0.888" transform="translate(268.133 30.051)" fill="none" stroke="#707070" stroke-width="1"/>
      <line id="Línea_12" data-name="Línea 12" x1="0.888" y1="2.663" transform="translate(261.031 30.939)" fill="none" stroke="#707070" stroke-width="1"/>
      <line id="Línea_13" data-name="Línea 13" x1="9.765" y1="2.663" transform="translate(245.051 35.378)" fill="none" stroke="#707070" stroke-width="1"/>
      <line id="Línea_14" data-name="Línea 14" x1="4.439" y1="0.888" transform="translate(241.5 40.704)" fill="none" stroke="#707070" stroke-width="1"/>
    </g>
    <path id="Trazado_4" data-name="Trazado 4" d="M944.661,1183c40.5-10.946,45.329-4.762,45.329-4.762" transform="translate(-7 116)" fill="none" stroke="#000" stroke-width="2"/>
  </g>
</svg>
