<?xml version="1.0" encoding="utf-8"?>
<!-- Generator: Adobe Illustrator 23.0.4, SVG Export Plug-In . SVG Version: 6.00 Build 0)  -->
<svg version="1.1" id="Capa_1" xmlns="http://www.w3.org/2000/svg" xmlns:xlink="http://www.w3.org/1999/xlink" x="0px" y="0px"
	 viewBox="0 0 127 108" style="enable-background:new 0 0 127 108;" xml:space="preserve">
<style type="text/css">
	.st0{fill:#50FF50;}
	.st1{fill:#2D912D;}
	.st2{fill:#707070;}
	.st3{enable-background:new    ;}
</style>
<g id="Logo_picku" transform="translate(-163)">
	<g id="Grupo_4" transform="translate(-19 -3)">
		<g id="Trazado_3" transform="translate(243.719 26.5)">
			<path class="st0" d="M19.1,49C9.1,49,1,38.3,1,25c0-3.2,0.5-6.4,1.6-9.4c1-2.8,2.4-5.4,4.2-7.7c3.5-4.4,8-6.9,12.3-6.9
				s8.8,2.5,12.3,6.9c1.8,2.2,3.2,4.8,4.2,7.7c1.1,3,1.6,6.2,1.6,9.4C37.2,38.3,29.1,49,19.1,49z"/>
			<path class="st1" d="M19.1,2c-2,0-4,0.6-6,1.7c-2,1.1-3.9,2.8-5.5,4.9c-1.7,2.2-3.1,4.6-4,7.4c-1,2.9-1.5,6-1.5,9.1
				c0,3.2,0.5,6.2,1.4,9.1c0.9,2.8,2.2,5.2,3.8,7.4c3.2,4.2,7.4,6.5,11.9,6.5s8.7-2.3,11.9-6.5c1.6-2.1,2.9-4.6,3.8-7.4
				c0.9-2.9,1.4-6,1.4-9.1c0-3.1-0.5-6.2-1.5-9.1c-1-2.7-2.3-5.2-4-7.4c-1.6-2-3.5-3.7-5.5-4.9C23.1,2.6,21.1,2,19.1,2 M19.1,0
				c9.5,0,19.1,11.2,19.1,25s-8.5,25-19.1,25S0,38.8,0,25S9.5,0,19.1,0z"/>
		</g>
		<rect x="270.2" y="34" transform="matrix(0.4472 -0.8944 0.8944 0.4472 119.0889 261.6698)" class="st2" width="2" height="1"/>
		<rect x="275.1" y="40.2" transform="matrix(0.9286 -0.3711 0.3711 0.9286 4.7038 105.8564)" class="st2" width="4.8" height="1"/>
		<rect x="279.7" y="48.2" class="st2" width="3.6" height="1"/>
		<rect x="280.1" y="61.5" transform="matrix(0.4474 -0.8943 0.8943 0.4474 99.1803 285.4267)" class="st2" width="1" height="2"/>
		<rect x="273.8" y="64.5" transform="matrix(0.8943 -0.4474 0.4474 0.8943 -0.7395 129.7675)" class="st2" width="1" height="4"/>
		
			<rect x="258.2" y="70.4" transform="matrix(0.3162 -0.9487 0.9487 0.3162 111.2352 296.1069)" class="st2" width="5.6" height="1"/>
		<rect x="250.2" y="66.8" transform="matrix(0.9285 -0.3714 0.3714 0.9285 -6.9417 98.6286)" class="st2" width="4.8" height="1"/>
		
			<rect x="247.2" y="56.3" transform="matrix(0.6401 -0.7683 0.7683 0.6401 43.2123 211.8317)" class="st2" width="1" height="6.9"/>
		<rect x="243.3" y="48.2" class="st2" width="1.8" height="1"/>
		
			<rect x="255.6" y="39.7" transform="matrix(0.3163 -0.9486 0.9486 0.3163 136.0848 271.1254)" class="st2" width="1" height="2.8"/>
		<rect x="267.9" y="30" transform="matrix(0.7071 -0.7071 0.7071 0.7071 57.1012 198.8441)" class="st2" width="1.3" height="1"/>
		<rect x="261" y="30.9" transform="matrix(0.9487 -0.3162 0.3162 0.9487 3.2132 84.3417)" class="st2" width="1" height="2.8"/>
		
			<rect x="249.4" y="31.6" transform="matrix(0.2631 -0.9648 0.9648 0.2631 148.7587 268.1787)" class="st2" width="1" height="10.1"/>
		
			<rect x="243.2" y="38.9" transform="matrix(0.1961 -0.9806 0.9806 0.1961 155.5782 272.0667)" class="st2" width="1" height="4.5"/>
	</g>
	<g class="st3">
		<path d="M171.3,66.3c0-0.8,0-1.6,0-2.3c-0.1-0.8-0.1-1.6-0.2-2.3c0-0.2-0.1-0.5-0.1-0.9c-0.1-0.4-0.1-0.7-0.1-0.8
			c0,0,0-0.1-0.1-0.3c-0.1-0.1-0.1-0.2-0.1-0.3l0.1-0.1c0.1-0.1,0.2-0.2,0.1-0.2V47.8h-0.2c-0.5,0.5-1,1.1-1.6,1.8
			c-0.6,0.6-1.4,0.9-2.2,0.9c-0.6,0-1.2-0.2-1.8-0.6c-0.6-0.4-0.8-1-0.8-1.7v-0.1c0,0,0-0.1,0.1-0.2c0-0.1,0.1-0.2,0.1-0.2
			c0-0.1,0.1-0.2,0.1-0.3l6.6-5.7v-3.2c0-0.4,0.2-0.7,0.7-0.9c0.5-0.2,0.9-0.3,1.2-0.3c0.5,0,1,0.1,1.4,0.4c0.4,0.3,0.9,0.4,1.3,0.4
			c0.4,0,0.7-0.1,1.1-0.4c0.3-0.2,0.6-0.4,0.9-0.6c1.5-0.9,2.9-1.6,4.3-2.1c1.4-0.5,2.9-0.7,4.7-0.7c0.7,0,1.6,0.1,2.7,0.2
			c1,0.1,2,0.4,3,0.7c1,0.4,1.8,0.8,2.4,1.5c0.7,0.6,1,1.4,1,2.4c0,1.8-0.4,3.4-1.1,5c-0.7,1.6-1.7,3-2.9,4.3
			c-1.6,1.6-3.2,3-4.6,4.2c-1.4,1.2-3,2.5-4.8,3.7c0,0-0.1,0.1-0.1,0.1c0,0.1-0.1,0.1-0.1,0.1l-5.7,3.9c-0.2,0.2-0.3,0.4-0.3,0.8
			s0,0.7,0,0.8c0,1.1,0.1,2.3,0.2,3.4c0.1,1.1,0.3,2.2,0.4,3.4c0.2,1.1,0.3,2.3,0.4,3.4c0.1,1.1,0.2,2.3,0.2,3.4
			c0,0.6-0.1,1.2-0.4,1.7c-0.3,0.5-0.8,0.7-1.6,0.7c-0.5,0-1.1-0.2-1.7-0.7c-0.6-0.4-0.9-1-1-1.6L171.3,66.3z M175.9,55l10.7-8.1
			c0.5-0.4,0.9-0.8,1.4-1.4c0.5-0.6,0.9-1.2,1.3-1.8s0.8-1.3,1-2c0.3-0.7,0.4-1.4,0.4-2c0-0.4-0.2-0.7-0.5-0.9
			c-0.3-0.2-0.7-0.4-1.1-0.5c-0.4-0.1-0.9-0.1-1.3-0.1c-0.4,0-0.8,0-1.1,0c-1.8,0-3.4,0.4-4.8,1.2c-1.5,0.8-2.9,1.7-4.2,2.5
			c-0.1,0.1-0.2,0.2-0.5,0.3c-0.2,0.1-0.5,0.3-0.7,0.5s-0.4,0.3-0.6,0.5c-0.2,0.2-0.3,0.3-0.3,0.4v11.1L175.9,55z"/>
		<path d="M194.6,33.1c0-0.3,0.2-0.5,0.7-0.7c0.4-0.2,0.8-0.3,1-0.3c0.6,0,1.2,0.2,2,0.5c0.7,0.3,1.1,0.8,1.1,1.5
			c0,0.7-0.1,1.1-0.3,1.3s-0.6,0.4-1.3,0.4c-0.7,0-1.4-0.2-2.1-0.7C195,34.5,194.6,33.9,194.6,33.1z M197.9,75.8
			c-0.4-3.9-0.7-7.2-1-10c-0.3-2.8-0.5-5.1-0.7-7c-0.2-1.9-0.4-3.4-0.5-4.5c-0.1-1.1-0.2-2-0.3-2.5c-0.1-0.6-0.1-0.9-0.2-1.1
			c0-0.2-0.1-0.3-0.1-0.4v-0.2c0-0.4,0.2-0.8,0.6-1.1c0.4-0.3,0.8-0.4,1.1-0.4c0.6,0,1.2,0.1,1.9,0.3c0.7,0.2,1.1,0.6,1.4,1.2
			c0.4,1.9,0.6,3.8,0.7,5.8c0.1,2,0.3,3.9,0.4,5.8c0.1,1.9,0.2,3.9,0.4,5.8c0.2,2,0.5,3.9,1,5.8c0,0.1,0,0.2,0.1,0.5
			s0.1,0.5,0.2,0.8c0.1,0.3,0.1,0.5,0.1,0.8c0,0.2,0.1,0.4,0.1,0.5v0.1c0,0,0,0.1,0.1,0.1c0,0.5-0.2,0.9-0.6,1.4
			c-0.4,0.5-0.9,0.7-1.3,0.6c-0.1,0-0.4-0.1-0.8-0.2c-0.4-0.1-0.8-0.2-0.9-0.3c-0.1,0-0.3-0.1-0.5-0.3c-0.2-0.1-0.4-0.3-0.6-0.4
			c-0.2-0.2-0.3-0.3-0.4-0.5C197.8,76.1,197.8,75.9,197.9,75.8z"/>
		<path d="M206.1,80.2c0-0.2,0-0.5-0.1-1c0-0.5-0.1-1-0.1-1.5c0-0.5,0-1-0.1-1.5c0-0.4,0-0.8,0-1c0-1.1,0-2.8,0-5
			c0-2.2,0-4.7,0.1-7.4c0-2.7,0-5.4,0.1-8.2c0-2.8,0.1-5.4,0.1-7.7c0-2.3,0-4.2,0-5.8c0-1.5-0.1-2.3-0.1-2.3c0-0.4,0.1-0.8,0.4-1.2
			c0.3-0.4,0.6-0.6,1.1-0.5c0.3,0,0.7,0,1.1,0.1c0.4,0.1,0.8,0.2,1.1,0.4c0.4,0.2,0.7,0.4,0.9,0.7c0.3,0.3,0.4,0.7,0.4,1.1v17.1h0.2
			l6.7-7.7c0.3-0.4,0.5-0.8,0.8-1.2c0.3-0.5,0.5-0.9,0.8-1.3c0.3-0.4,0.6-0.8,0.9-1.2s0.8-0.6,1.3-0.7c0.8,0.2,1.5,0.5,2.1,0.8
			s0.9,1,0.9,1.9c0,0.1,0,0.2-0.1,0.4s-0.1,0.3-0.1,0.4c-0.1,0.2-0.4,0.5-0.7,0.9c-0.4,0.4-1,1.2-1.8,2.2c-0.8,1-2,2.4-3.4,4.1
			c-1.4,1.7-3.3,3.9-5.5,6.6l0.5,0.3l11.4,1.2c0.5,0.1,1,0.4,1.4,0.8c0.4,0.5,0.6,0.9,0.6,1.4c0,0.8-0.3,1.3-0.8,1.7
			c-0.6,0.3-1.2,0.5-1.8,0.6c0-0.2-0.2-0.2-0.4-0.3c-0.2,0-0.8-0.1-1.6-0.1c-0.9-0.1-2.2-0.2-3.9-0.4c-1.7-0.2-4.2-0.5-7.2-1
			l0.2,13.9c0,0.8-0.1,1.4-0.4,1.8c-0.3,0.4-0.9,0.6-1.8,0.6c-0.7,0-1.3-0.2-1.8-0.7C206.7,81.3,206.4,80.8,206.1,80.2z"/>
		<path d="M228.3,75.7c0-0.2,0.1-0.5,0.2-0.9s0.3-0.7,0.5-0.7l29.6-5.7c0.1,0,0.3,0,0.6,0c0.3,0,0.5,0,0.6,0
			c0.2,0.3,0.3,0.5,0.5,0.6c0.2,0.2,0.3,0.3,0.5,0.5s0.3,0.4,0.4,0.6c0.1,0.3,0.1,0.6,0.1,1.1s-0.2,0.9-0.7,1.2s-0.9,0.6-1.3,0.6
			L232,78H232c-0.9,0-1.6-0.2-2.1-0.5c-0.4-0.3-1-0.8-1.6-1.5V75.7z"/>
	</g>
	<g class="st3">
		<path d="M279.5,70.6c-0.4,0.8-0.7,1.6-1.1,2.5c-0.4,0.9-0.8,1.7-1.2,2.5c-0.5,0.7-1,1.3-1.7,1.8c-0.7,0.5-1.5,0.7-2.6,0.7
			c-1.8,0-3.3-0.5-4.5-1.4c-1.2-0.9-2.2-2.1-2.9-3.4c-0.8-1.4-1.3-2.9-1.6-4.5c-0.3-1.6-0.5-3.1-0.5-4.5l0.6-18.9
			c-0.1-0.4,0-0.7,0.3-1.1s0.5-0.8,0.9-1.1c0.4-0.3,0.8-0.6,1.3-0.8c0.5-0.2,0.9-0.3,1.4-0.3c1.2,0,2.2,0.4,3,1.1
			c0.8,0.8,1.2,1.7,1.2,2.9v0.8c-0.6,0.9-1.1,2.2-1.5,3.7c-0.4,1.5-0.7,3.1-1,4.9c-0.2,1.7-0.4,3.5-0.4,5.4c-0.1,1.8,0,3.5,0.2,5
			c0.2,1.5,0.5,2.8,0.9,3.9c0.4,1.1,1,1.7,1.6,1.9c0.3,0,0.7-0.1,1.2-0.4c0.5-0.3,1.1-0.8,1.8-1.5c0.6-0.7,1.3-1.8,2-3.1
			c0.7-1.3,1.3-3.1,1.8-5.3c0.5-2.2,0.9-4.8,1.2-8c0.3-3.1,0.3-6.9,0.2-11.2c0.2-0.6,0.5-0.9,0.9-0.9c0.4-0.1,0.8-0.1,1.2-0.1
			c0.5,0,0.9,0,1.2,0c0.3,0,0.7,0.2,1,0.6c0.3,0.3,0.5,0.7,0.9,1.2c0.3,0.5,0.5,0.8,0.5,0.9l1.3,34.6c0,0.8-0.2,1.4-0.6,2
			c-0.4,0.5-1,0.8-1.8,0.8c-0.3,0-0.6,0-0.9-0.1c-0.4-0.1-0.7-0.2-1.1-0.3c-0.4-0.2-0.7-0.4-1-0.6c-0.3-0.2-0.5-0.5-0.5-0.8
			l-1.3-7.8L279.5,70.6z"/>
	</g>
</g>
</svg>
