<?xml version="1.0" encoding="utf-8"?>
<!-- Generator: Adobe Illustrator 23.0.4, SVG Export Plug-In . SVG Version: 6.00 Build 0)  -->
<svg version="1.1" id="Capa_1" xmlns="http://www.w3.org/2000/svg" xmlns:xlink="http://www.w3.org/1999/xlink" x="0px" y="0px"
	 viewBox="0 0 422.4 393" style="enable-background:new 0 0 422.4 393;" xml:space="preserve">
<style type="text/css">
	.st0{fill:#EFF5EF;}
	.st1{enable-background:new    ;}
	.st2{fill:#BC534A;}
	.st3{fill:none;}
	.st4{fill:none;stroke:#000000;stroke-width:6;}
</style>
<g id="Grupo_20" transform="translate(-749 -2400.177)">
	<path id="Trazado_27" class="st0" d="M813.6,2512c32.3-55.9,130.2-74,211.2-27.2c81,46.8,117.7,134.7,82,196.5
		s-130.2,74-211.2,27.2S781.3,2568,813.6,2512z"/>
	<g class="st1">
		<path d="M880.7,2548.9c0-0.7,0.1-1.3,0.2-1.6c0.1-0.4,0.5-0.9,1-1.8c2.4-3.8,4.9-7.6,7.3-11.4c2.5-3.8,4.7-7.7,6.7-11.7
			c2-4,3.7-8.1,4.9-12.3c1.3-4.2,1.9-8.6,1.9-13.2c-2.7,0-5.1,0.8-7.1,2.4c-2.1,1.6-4,3.4-5.9,5.4c-1.9,2-3.7,3.8-5.5,5.4
			c-1.8,1.6-3.7,2.4-5.8,2.4c-0.6,0-1.3-0.1-2-0.2c-0.7-0.1-1.4-0.4-2-0.7c-0.6-0.3-1.2-0.8-1.6-1.3c-0.5-0.6-0.7-1.3-0.7-2.1v-0.3
			c0.5-1.2,1.3-2.3,2.3-3.4c1-1.1,2.1-2.2,3.2-3.2c1.2-1,2.3-2,3.5-2.9c1.2-0.9,2.2-1.7,3.1-2.4c1.3-1.1,2.7-2.2,4.3-3.4
			c1.6-1.2,3.3-2.3,5.1-3.3c1.8-1,3.6-1.9,5.5-2.6s3.8-1,5.7-1c3.2,0,5.5,1,6.7,3c1.3,2,1.9,4.6,1.9,7.7c0,5.9-1,11.7-3,17.5
			c-2,5.7-4.5,11.1-7.3,16.2v0.5l-3.5,6.2h1.2c3.8-2.2,7.8-4,12.2-5.5c4.4-1.5,8.6-2.7,12.9-3.7h0.5c1.6,0,3,0.3,4,0.8
			s1.6,1.8,1.6,3.8c0,1.3-0.4,2.5-1.1,3.5c-0.7,0.2-1.6,0.5-2.8,0.8c-1.1,0.4-2.1,0.5-2.9,0.3l-13.2,4.7l-21.6,11.3
			c-1.4,0.7-2.9,1.1-4.3,1.1c-1.3,0-2.5-0.5-3.6-1.5C881.3,2551.4,880.7,2550.2,880.7,2548.9z"/>
	</g>
	<path id="Rectángulo_12" class="st2" d="M959.8,2564h86l0,0v69c0,16.6-13.4,30-30,30h-26c-16.6,0-30-13.4-30-30V2564L959.8,2564z"
		/>
	<g id="Rectángulo_11" transform="translate(949.791 2564)">
		<path class="st3" d="M0,0h86l0,0v69c0,16.6-13.4,30-30,30H30C13.4,99,0,85.6,0,69V0L0,0z"/>
		<path class="st4" d="M6,3h74c1.7,0,3,1.3,3,3v63c0,14.9-12.1,27-27,27H30C15.1,96,3,83.9,3,69V6C3,4.3,4.3,3,6,3z"/>
	</g>
	<path id="Trazado_30" class="st4" d="M1019.6,2613.4c0,0,1.7,31.2-13.6,32.4"/>
</g>
</svg>
