<?xml version="1.0" encoding="utf-8"?>
<!-- Generator: Adobe Illustrator 23.0.4, SVG Export Plug-In . SVG Version: 6.00 Build 0)  -->
<svg version="1.1" id="Capa_1" xmlns="http://www.w3.org/2000/svg" xmlns:xlink="http://www.w3.org/1999/xlink" x="0px" y="0px"
	 viewBox="0 0 422.4 393" style="enable-background:new 0 0 422.4 393;" xml:space="preserve">
<style type="text/css">
	.st0{fill:#EFF5EF;}
	.st1{fill:#50FF50;}
	.st2{fill:#932B2B;}
	.st3{fill:#A93E39;}
	.st4{enable-background:new    ;}
</style>
<g id="Grupo_19" transform="translate(-161 -2400.177)">
	<path id="Trazado_26" class="st0" d="M225.6,2512c32.3-55.9,130.2-74,211.2-27.2c81,46.8,117.7,134.7,82,196.5
		c-35.7,61.8-130.2,74-211.2,27.2S193.3,2568,225.6,2512z"/>
	<ellipse id="Elipse_4" class="st1" cx="401.8" cy="2562" rx="40" ry="38"/>
	<path id="Rectángulo_7" class="st2" d="M364.8,2589h79c4.4,0,8,3.6,8,8l0,0c0,4.4-3.6,8-8,8h-79c-4.4,0-8-3.6-8-8l0,0
		C356.8,2592.6,360.4,2589,364.8,2589z"/>
	<path id="Trazado_19" class="st3" d="M361.7,2603.1l8.4,46.9h63.4l9-46.9H361.7z"/>
	<ellipse id="Elipse_5" class="st1" cx="398.3" cy="2524.5" rx="13.5" ry="11.5"/>
	<g id="cactus_1_" transform="translate(261.201 2508.443)">
		<path id="Trazado_8" d="M174.1,81.5h-8.8c6-7.4,9.3-16.6,9.3-26.2c0-15.6-8.8-30-22.8-37.1c1.7-5.6-1.4-11.5-7-13.2
			c-0.9-0.3-1.9-0.4-2.9-0.5c-3.3-4.8-9.9-6-14.8-2.7c-1.1,0.7-2,1.7-2.7,2.7c-5.9,0.1-10.5,5-10.4,10.8c0,0.9,0.2,1.9,0.4,2.8
			c-14.1,7-23,21.4-23,37.2c0,9.5,3.3,18.8,9.3,26.2h-8.3c-3.8,0-6.8,3.1-6.8,6.8v1.8c0,3.2,2.2,5.9,5.2,6.6l2.6,18.6
			c0.2,1.1,1.3,1.9,2.4,1.7c1.1-0.2,1.8-1.2,1.7-2.3l-2.5-17.8h59.8c1.2,0,2.1-0.9,2.1-2.1s-0.9-2.1-2.1-2.1c0,0,0,0,0,0H92.4
			c-1.4,0-2.6-1.2-2.6-2.6v-1.8c0-1.4,1.2-2.6,2.6-2.6h81.7c1.4,0,2.6,1.2,2.6,2.6v1.8c0,1.4-1.2,2.6-2.6,2.6h-10.2
			c-1.2,0-2.1,0.9-2.1,2.1s0.9,2.1,2.1,2.1c0,0,0,0,0,0h7l-5.4,38.4c-0.3,2.1-2.1,3.6-4.2,3.6h-56.5c-2.1,0-3.9-1.6-4.2-3.6
			l-1.7-11.7c-0.2-1.1-1.3-1.9-2.4-1.7c-1.1,0.2-1.8,1.2-1.7,2.3l1.7,11.7c0.6,4.2,4.2,7.2,8.3,7.2h56.5c4.2,0,7.7-3.1,8.3-7.2
			l5.5-39.1c3.3-0.5,5.8-3.4,5.8-6.7v-1.8C180.9,84.6,177.8,81.5,174.1,81.5z M170.3,55.3c0,9.8-3.8,19.2-10.7,26.2h-8.4
			c3.9-9,5.8-18.7,5.8-28.5c0.1-10.6-2.3-21.2-6.8-30.8C162.6,28.6,170.3,41.4,170.3,55.3z M118.2,15.2c0-3.5,2.9-6.4,6.4-6.4
			c0.2,0,0.5,0,0.7,0c0.9,0.1,1.7-0.4,2.1-1.1c1.6-3.2,5.5-4.4,8.6-2.8c1.2,0.6,2.2,1.6,2.8,2.8c0.4,0.8,1.2,1.2,2.1,1.1
			c0.2,0,0.5,0,0.7,0c3.5,0,6.4,2.9,6.4,6.4c0,0.5,0,0.9-0.1,1.4c-9.5-3.7-20.1-3.7-29.6-0.1C118.2,16,118.2,15.6,118.2,15.2z
			 M95.6,55.3c0-13.9,7.8-26.7,20.1-33.1c-2.3,4.7-4,9.7-5.1,14.9c-0.3,1.1,0.4,2.3,1.5,2.6c1.1,0.3,2.3-0.4,2.6-1.5
			c0,0,0-0.1,0-0.1c1.4-6.5,3.8-12.6,7.2-18.3c7.2-2.2,14.9-2.2,22.1,0c5.7,9.3,8.8,21.1,8.8,33.3c0.1,9.9-2,19.6-6.2,28.5h-27.3
			c-4.2-8.9-6.3-18.7-6.2-28.6c0-2.1,0.1-4.2,0.3-6.4c0.1-1.2-0.8-2.1-2-2.2c-1.1,0-2,0.7-2.2,1.8c-0.2,2.2-0.3,4.5-0.3,6.7
			c-0.1,9.8,1.9,19.5,5.8,28.5h-8.4C99.4,74.6,95.6,65.2,95.6,55.3z"/>
		<path id="Trazado_9" d="M133,33.1c1.2,0,2.1-0.9,2.1-2.1c0,0,0,0,0,0v-2.4c0-1.2-0.9-2.1-2.1-2.1c-1.2,0-2.1,0.9-2.1,2.1V31
			C130.9,32.2,131.8,33.1,133,33.1L133,33.1L133,33.1z"/>
		<path id="Trazado_10" d="M133,47.1c1.2,0,2.1-0.9,2.1-2.1v0v-2.4c0-1.2-0.9-2.1-2.1-2.1c-1.2,0-2.1,0.9-2.1,2.1c0,0,0,0,0,0V45
			C130.9,46.2,131.8,47.1,133,47.1L133,47.1L133,47.1z"/>
		<path id="Trazado_11" d="M104.5,56.5v-1.6c0-1.2-0.9-2.1-2.1-2.1c-1.2,0-2.1,0.9-2.1,2.1v1.6c0,1.2,0.9,2.1,2.1,2.1
			C103.5,58.6,104.5,57.7,104.5,56.5z"/>
		<path id="Trazado_12" d="M104.9,42.7c1.2,0,2.1-0.9,2.1-2.1v0V39c0-1.2-0.9-2.1-2.1-2.1c-1.2,0-2.1,0.9-2.1,2.1v1.6
			C102.8,41.8,103.7,42.7,104.9,42.7z"/>
		<path id="Trazado_13" d="M105.7,68.8c-1.2,0-2.1,0.9-2.1,2.1v0v1.6c0,1.2,0.9,2.1,2.1,2.1c1.2,0,2.1-0.9,2.1-2.1v-1.6
			C107.8,69.8,106.9,68.8,105.7,68.8z"/>
		<path id="Trazado_14" d="M161.5,54.9v1.6c0,1.2,0.9,2.1,2.1,2.1s2.1-0.9,2.1-2.1v-1.6c0-1.2-0.9-2.1-2.1-2.1
			S161.5,53.8,161.5,54.9z"/>
		<path id="Trazado_15" d="M161.1,42.7c1.2,0,2.1-0.9,2.1-2.1v0V39c0-1.2-0.9-2.1-2.1-2.1S159,37.9,159,39v1.6
			C159,41.8,159.9,42.7,161.1,42.7z"/>
		<path id="Trazado_16" d="M160.2,74.6c1.2,0,2.1-0.9,2.1-2.1v0v-1.6c0-1.2-0.9-2.1-2.1-2.1s-2.1,0.9-2.1,2.1v1.6
			C158.1,73.7,159.1,74.6,160.2,74.6L160.2,74.6z"/>
		<path id="Trazado_17" d="M133,61.1c1.2,0,2.1-0.9,2.1-2.1v0v-2.4c0-1.2-0.9-2.1-2.1-2.1c-1.2,0-2.1,0.9-2.1,2.1V59
			C130.9,60.1,131.8,61.1,133,61.1L133,61.1L133,61.1z"/>
		<path id="Trazado_18" d="M133,75c1.2,0,2.1-0.9,2.1-2.1v0v-2.4c0-1.2-0.9-2.1-2.1-2.1c-1.2,0-2.1,0.9-2.1,2.1c0,0,0,0,0,0v2.4
			C130.9,74.1,131.8,75,133,75L133,75L133,75z"/>
	</g>
	<g class="st4">
		<path d="M297.9,2548.9c-0.2-2.1-0.3-4-0.3-5.8c0-1.8-0.1-3.6-0.1-5.3c0-1.8-0.1-3.5-0.1-5.3s0-3.7,0-5.7c0-7,0.4-13.9,1.1-20.8
			c0.8-6.9,1.3-13.8,1.7-20.8c0-0.8,0-1.9-0.1-3.2c0-1.3,0.1-2.6,0.3-3.8s0.8-2.2,1.5-3c0.7-0.8,1.8-1.1,3.4-1
			c1.4,0.2,2.6,0.8,3.4,1.8c0.8,1,1.4,2.2,1.9,3.5c-0.9,9.1-1.7,18.1-2.5,27.2c-0.8,9-1.1,18.2-1.1,27.4c0,2.2,0.1,4.3,0.3,6.5
			c0.2,2.2,0.3,4.3,0.3,6.5c0,0.7,0,1.5-0.1,2.3c-0.1,0.8-0.3,1.6-0.5,2.3c-0.3,0.7-0.7,1.3-1.3,1.8c-0.6,0.5-1.3,0.7-2.2,0.7
			c-1.6,0-2.8-0.5-3.6-1.6S298.4,2550.2,297.9,2548.9z"/>
	</g>
</g>
</svg>
