<?xml version="1.0" encoding="utf-8"?>
<!-- Generator: Adobe Illustrator 23.0.4, SVG Export Plug-In . SVG Version: 6.00 Build 0)  -->
<svg version="1.1" id="Capa_1" xmlns="http://www.w3.org/2000/svg" xmlns:xlink="http://www.w3.org/1999/xlink" x="0px" y="0px"
	 viewBox="0 0 422.4 393" style="enable-background:new 0 0 422.4 393;" xml:space="preserve">
<style type="text/css">
	.st0{fill:#EFF5EF;}
	.st1{enable-background:new    ;}
	.st2{fill:#FEB756;}
	.st3{fill:#FFFFFF;}
	.st4{fill:#FD3C65;}
	.st5{fill:#4DBBEB;}
	.st6{fill:#FFF5CD;}
</style>
<g id="Grupo_21" transform="translate(-1338 -2400.177)">
	<path id="Trazado_28" class="st0" d="M1402.6,2512c32.3-55.9,130.2-74,211.2-27.2c81,46.8,117.7,134.7,82,196.5
		s-130.2,74-211.2,27.2C1403.6,2661.8,1370.3,2568,1402.6,2512z"/>
	<g class="st1">
		<path d="M1449.7,2548.9c0-0.8,0.1-1.5,0.2-2c0.1-0.5,0.7-1,1.5-1.4c0.1-0.1,0.3-0.2,0.7-0.2c0.4,0,0.7-0.1,1.1-0.2
			c0.4-0.1,0.8-0.2,1.1-0.2c0.3,0,0.5-0.1,0.6-0.1c0.5-0.1,1.1-0.3,1.8-0.7s1.3-0.9,2-1.3c0.7-0.5,1.3-1,1.8-1.4
			c0.5-0.4,0.9-0.8,1.2-0.9c2.6-2.2,4.4-4.7,5.3-7.4s1.4-5.7,1.4-9c0-0.4,0-1.1,0-1.9s0-1.6-0.1-2.5c0-0.9-0.2-1.6-0.5-2.3
			s-0.7-1.1-1.2-1.4c-0.2-0.1-0.6-0.1-1.3-0.1s-1.1,0-1.3,0c-2.1,0-4,0.4-5.9,1.3c-1.8,0.9-3.6,1.8-5.4,2.8c-1.8,1-3.6,2-5.4,2.8
			c-1.8,0.9-3.8,1.3-6,1.3c-1.4,0-2.6-0.5-3.4-1.4s-1.2-2.1-1.2-3.4c0-1.4,0.9-3.4,2.6-5.8c1.7-2.4,3.6-5,5.8-7.7s4.3-5.4,6.3-8
			c2.1-2.6,3.5-4.9,4.3-6.8h-1.1c-2.1,0-4,0.4-5.7,1.3c-1.7,0.9-3.3,1.8-4.9,2.8c-1.5,1-3,1.9-4.5,2.8c-1.5,0.9-3,1.3-4.6,1.3
			c-1.2,0-2.4-0.3-3.6-0.9c-1.3-0.6-1.9-1.6-1.9-3.2c0-1.3,0.7-2.5,2-3.8c1.3-1.3,3.1-2.5,5.3-3.6c2.2-1.1,4.6-2.2,7.2-3.2
			c2.6-1,5.3-1.8,7.8-2.6c2.6-0.7,4.9-1.3,7.1-1.7s3.8-0.6,5-0.6c3.3,0,5,1.8,5,5.3v1.8c-1.5,4-3.4,7.7-5.5,10.8
			c-2.2,3.2-4.3,6.6-6.5,10.2h1.3c1.3,0,2.4-0.1,3.4-0.3c1-0.2,2.2-0.3,3.4-0.3c3.6,0,6.4,1.1,8.5,3.4c2.1,2.3,3.5,5.1,4.4,8.4
			c0,0.5,0,1.4,0.1,2.8c0,1.4,0.1,2.3,0.1,2.6c0,6-1.3,11.2-3.8,15.4c-2.5,4.3-6.2,8.1-11.2,11.5c-2.5,2-5.3,3-8.2,3
			c-1.4,0-2.7-0.5-3.8-1.5C1450.3,2551.4,1449.7,2550.2,1449.7,2548.9z"/>
	</g>
	<g id="paleta-de-pintura" transform="translate(1496.791 2525.051)">
		<path id="Trazado_31" class="st2" d="M83.9,38.9c-15.5,2-26.7-12.6-16.6-25.3c1.9-2.1,2.2-5.2,0.8-7.7
			C47,13.5,30.5,33.4,28.5,56.6C25.7,87,46,114.8,75.9,121.2C131.3,110.1,139,31.8,83.9,38.9z"/>
		<path id="Trazado_32" class="st3" d="M45.6,59.8c-0.2,3.3-2,6.2-4.9,7.8C36.1,70.3,19,68.9,19,68.9s7.4-15.5,12-18.2
			c4.7-2.7,10.6-1.1,13.3,3.6C45.3,56,45.7,57.9,45.6,59.8L45.6,59.8z"/>
		<path id="Trazado_33" class="st4" d="M36.3,56.1c-2.9,1.7-6.9,8.4-9.5,13.2c5.1,0.1,11.4-0.2,13.9-1.7c4.2-2.4,6-7.6,4.2-12.1
			C42.1,54.3,39,54.5,36.3,56.1z"/>
		<path id="Trazado_34" class="st5" d="M38.1,90.4c0,4-3.3,7.3-7.3,7.3s-7.3-3.3-7.3-7.3s3.3-7.3,7.3-7.3S38.1,86.4,38.1,90.4
			L38.1,90.4z"/>
		<path id="Trazado_35" class="st3" d="M120.8,10.3c2.4,4.1-10.2,15.9-29,27.8c-2.7,1.7-5.5,3.4-8.4,5.1c-4.9,2.8-9.8,5.4-14.4,7.6
			c-1.5-6.1-4.7-11.6-9.2-16c1.8-1.2,3.7-2.5,5.7-3.7c2.6-1.6,5.3-3.3,8.1-4.9C96.9,12.8,118.1,5.6,120.8,10.3z"/>
		<path id="Trazado_36" class="st4" d="M67.4,39.1c-0.9,0.6-1.8,1.1-2.7,1.7c0.3,0.4,0.5,0.8,0.8,1.2c1.6,2.7,2.8,5.7,3.5,8.7
			c4.6-2.2,9.4-4.8,14.4-7.6c2.9-1.7,5.7-3.4,8.4-5.1c12.4-7.8,22-15.6,26.5-21.2c-7.8,0.2-24.6,6.9-42.8,17.4
			C72.7,35.9,70,37.5,67.4,39.1z"/>
		<path id="Trazado_37" class="st6" d="M111.3,75.8c0,4-3.3,7.3-7.3,7.3s-7.3-3.3-7.3-7.3s3.3-7.3,7.3-7.3S111.3,71.7,111.3,75.8
			L111.3,75.8z"/>
		<path id="Trazado_38" class="st5" d="M91.8,100.2c0,4-3.3,7.3-7.3,7.3s-7.3-3.3-7.3-7.3s3.3-7.3,7.3-7.3S91.8,96.1,91.8,100.2
			L91.8,100.2z"/>
		<path id="Trazado_39" class="st6" d="M65.5,42.1c1.6,2.7,2.8,5.7,3.5,8.7c-9.2,4.5-17.4,7.6-23.4,9c0.2-3.8-1.8-7.5-5.2-9.3
			c4.2-4.5,11-10,19.4-15.7C62,37,63.9,39.4,65.5,42.1z"/>
		<path id="Trazado_40" class="st6" d="M62.5,105.1c0,4-3.3,7.3-7.3,7.3s-7.3-3.3-7.3-7.3c0-4,3.3-7.3,7.3-7.3S62.5,101,62.5,105.1
			L62.5,105.1z"/>
		<path id="Trazado_41" class="st3" d="M42.9,17.5c4,0,7.3,3.3,7.3,7.3s-3.3,7.3-7.3,7.3s-7.3-3.3-7.3-7.3l0,0
			C35.6,20.8,38.9,17.5,42.9,17.5z"/>
		<path id="Trazado_42" class="st6" d="M39.9,29.1c0,0.9,0.2,1.7,0.5,2.6c3.8,1.4,8-0.5,9.4-4.3c0.6-1.7,0.6-3.5,0-5.1
			c-3.8-1.4-8,0.5-9.4,4.3C40.1,27.4,39.9,28.3,39.9,29.1z"/>
		<path id="Trazado_43" d="M116,46.1c-4.6-5-10.8-8.4-17.6-9.4c6.2-4.1,12-8.6,17.5-13.6c6.6-6.3,8.8-10.7,7-13.9
			c-2.1-3.6-8-3.5-18.7,0.1c-9.1,3.1-20.3,8.4-31.8,15c-2,1.1-3.9,2.3-5.8,3.5c-1.5-4-0.6-8.5,2.6-12.5c2.3-2.7,2.8-6.6,1.4-9.9
			C69,2,65.5,0,61.3,0h-0.1c-14.9,0-29.5,5.9-41,16.5C8.8,26.9,1.7,41.1,0.2,56.3c-3.3,34.5,22,65,56.5,68.3
			c1.9,0.2,3.8,0.3,5.8,0.3c9,0.1,17.9-1.7,26.2-5.1c7.3-3.1,13.8-7.6,19.3-13.2c5-5.2,9.1-11.3,11.9-17.9c2.6-6.1,4-12.7,4.1-19.4
			C124.1,60,121.3,52,116,46.1z M74.8,28.4c9.4-5.6,19.4-10.3,29.6-14.1c9.4-3.3,13.2-3.1,14.1-2.7c-0.1,0.6-0.8,3.1-6.9,8.8
			C105,26.1,98,31.4,90.5,36c-2.7,1.7-5.5,3.4-8.3,5c-3.9,2.3-7.8,4.4-11.6,6.3c-1.5-4.4-3.9-8.5-6.9-12.1c1.1-0.7,2.1-1.4,3.2-2.1
			C69.4,31.6,72.1,29.9,74.8,28.4z M47.8,56.7c-0.5-2.5-1.8-4.8-3.7-6.5c4.8-4.5,9.9-8.5,15.4-12.2c3,3.3,5.2,7.2,6.6,11.5
			C60.2,52.4,54.1,54.8,47.8,56.7z M39.3,52.7c3.6,1.9,5,6.3,3.1,9.9c-0.6,1.2-1.6,2.3-2.8,2.9c-2.3,1.3-10.2,1.5-16.7,1.2
			c3-5.8,7.1-12.6,9.4-13.9C34.4,51.6,37.1,51.5,39.3,52.7z M62.5,120.1C30.6,120,4.8,94,4.8,62.1c0-1.8,0.1-3.6,0.3-5.3
			C7.6,28.2,32.7,4.9,61.2,4.9h0.1c2.3,0,4.1,0.9,4.9,2.5c0.7,1.6,0.4,3.4-0.8,4.7c-4.5,5.7-5.6,12.4-3,18.2
			c-1.3,0.9-2.6,1.7-3.9,2.6l0,0c-6.7,4.4-12.9,9.3-18.7,14.8c-3.3-1.1-7-0.8-10,1c-5.1,2.9-11.7,16.6-13,19.3
			c-0.6,1.2-0.1,2.7,1.2,3.3c0.3,0.1,0.6,0.2,0.8,0.2c1.3,0.1,5.2,0.4,9.4,0.4c5.2,0,11-0.4,13.8-2c3-1.7,5.1-4.6,5.8-8
			c7.7-2.2,15.1-5.2,22.3-8.8c4.7-2.3,9.6-4.9,14.5-7.7c2.5-1.4,4.9-2.9,7.3-4.4c20.2,0.6,27.3,14.9,27.2,28.3
			C119,93.7,97.3,120.1,62.5,120.1L62.5,120.1z"/>
		<path id="Trazado_44" d="M84.5,70.8c0.2-1.3-0.8-2.6-2.1-2.7c-1.3-0.2-2.5,0.7-2.7,2c-0.7,4.5-4.5,8.2-10.2,10
			c-6.1,1.9-14.6,1.2-19.7-4.4c-0.9-1-2.5-1.1-3.4-0.2c-1,0.9-1.1,2.5-0.2,3.5l0,0c3.1,3.3,7.3,5.6,11.8,6.4
			c1.7,0.3,3.4,0.5,5.1,0.5c2.7,0,5.3-0.4,7.9-1.2C78.4,82.4,83.5,77.2,84.5,70.8z"/>
		<path id="Trazado_45" d="M42.9,34.6c5.4,0,9.8-4.4,9.8-9.8s-4.4-9.8-9.8-9.8c-5.4,0-9.8,4.4-9.8,9.8v0
			C33.2,30.2,37.6,34.6,42.9,34.6z M42.9,20c2.7,0,4.9,2.2,4.9,4.9c0,2.7-2.2,4.9-4.9,4.9c-2.7,0-4.9-2.2-4.9-4.9v0
			C38.1,22.2,40.3,20,42.9,20z"/>
		<path id="Trazado_46" d="M30.7,80.7c-5.4,0-9.8,4.4-9.8,9.8c0,5.4,4.4,9.8,9.8,9.8s9.8-4.4,9.8-9.8l0,0
			C40.5,85,36.1,80.7,30.7,80.7z M30.7,95.3c-2.7,0-4.9-2.2-4.9-4.9c0-2.7,2.2-4.9,4.9-4.9s4.9,2.2,4.9,4.9
			C35.6,93.1,33.4,95.3,30.7,95.3z"/>
		<path id="Trazado_47" d="M55.1,95.3c-5.4,0-9.8,4.4-9.8,9.8s4.4,9.8,9.8,9.8c5.4,0,9.8-4.4,9.8-9.8l0,0
			C64.9,99.7,60.5,95.3,55.1,95.3z M55.1,110c-2.7,0-4.9-2.2-4.9-4.9c0-2.7,2.2-4.9,4.9-4.9c2.7,0,4.9,2.2,4.9,4.9
			C60,107.8,57.8,109.9,55.1,110z"/>
		<path id="Trazado_48" d="M84.4,90.4c-5.4,0-9.8,4.4-9.8,9.8c0,5.4,4.4,9.8,9.8,9.8c5.4,0,9.8-4.4,9.8-9.8l0,0
			C94.2,94.8,89.8,90.4,84.4,90.4z M84.4,105.1c-2.7,0-4.9-2.2-4.9-4.9s2.2-4.9,4.9-4.9c2.7,0,4.9,2.2,4.9,4.9
			C89.3,102.9,87.1,105.1,84.4,105.1z"/>
		<path id="Trazado_49" d="M104,66c-5.4,0-9.8,4.4-9.8,9.8c0,5.4,4.4,9.8,9.8,9.8c5.4,0,9.8-4.4,9.8-9.8l0,0
			C113.7,70.4,109.3,66,104,66z M104,80.7c-2.7,0-4.9-2.2-4.9-4.9s2.2-4.9,4.9-4.9c2.7,0,4.9,2.2,4.9,4.9
			C108.8,78.5,106.6,80.7,104,80.7z"/>
		<path id="Trazado_50" d="M84.4,57.6c0,1.3-1.1,2.4-2.4,2.4s-2.4-1.1-2.4-2.4c0-1.3,1.1-2.4,2.4-2.4S84.4,56.2,84.4,57.6L84.4,57.6
			z"/>
	</g>
</g>
</svg>
